<?xml version="1.0" encoding="UTF-8" standalone="no"?>
<svg
   id="Capa_1"
   viewBox="0 0 2850 523.708"
   version="1.1"
   sodipodi:docname="principal.svg"
   width="2850"
   height="523.70801"
   inkscape:version="1.2.2 (732a01da63, 2022-12-09)"
   xmlns:inkscape="http://www.inkscape.org/namespaces/inkscape"
   xmlns:sodipodi="http://sodipodi.sourceforge.net/DTD/sodipodi-0.dtd"
   xmlns:xlink="http://www.w3.org/1999/xlink"
   xmlns="http://www.w3.org/2000/svg"
   xmlns:svg="http://www.w3.org/2000/svg">
  <sodipodi:namedview
     id="namedview109"
     pagecolor="#505050"
     bordercolor="#eeeeee"
     borderopacity="1"
     inkscape:showpageshadow="0"
     inkscape:pageopacity="0"
     inkscape:pagecheckerboard="0"
     inkscape:deskcolor="#505050"
     showgrid="false"
     inkscape:zoom="0.95724466"
     inkscape:cx="1822.9404"
     inkscape:cy="124.31514"
     inkscape:window-width="1920"
     inkscape:window-height="1009"
     inkscape:window-x="-8"
     inkscape:window-y="-8"
     inkscape:window-maximized="1"
     inkscape:current-layer="Capa_1" />
  <defs
     id="defs72">
    <style
       id="style60">.cls-1{fill:url(#linear-gradient-2);}.cls-2{fill:url(#linear-gradient-6);}.cls-3{fill:#0f206c;}.cls-4{fill:url(#linear-gradient-5);}.cls-5{fill:none;}.cls-6{fill:url(#linear-gradient-3);}.cls-7{fill:url(#linear-gradient);}.cls-8{fill:url(#linear-gradient-4);}</style>
    <linearGradient
       id="linear-gradient"
       x1="389.29001"
       y1="400.16"
       x2="539.01001"
       y2="281.57999"
       gradientUnits="userSpaceOnUse">
      <stop
         offset="0"
         stop-color="#bbb"
         id="stop62" />
      <stop
         offset="1"
         stop-color="#8c9091"
         id="stop64" />
    </linearGradient>
    <linearGradient
       id="linear-gradient-2"
       x1="535.38"
       y1="285.44"
       x2="628.39001"
       y2="371.10001"
       xlink:href="#linear-gradient" />
    <linearGradient
       id="linear-gradient-3"
       x1="550.10999"
       y1="293.03"
       x2="609.73999"
       y2="265.16"
       xlink:href="#linear-gradient" />
    <linearGradient
       id="linear-gradient-4"
       x1="632.88"
       y1="250.66"
       x2="707.02002"
       y2="321.20999"
       xlink:href="#linear-gradient" />
    <linearGradient
       id="linear-gradient-5"
       x1="599.66998"
       y1="376.07999"
       x2="742.04999"
       y2="269.92999"
       xlink:href="#linear-gradient" />
    <linearGradient
       id="linear-gradient-6"
       x1="739.33002"
       y1="276.54001"
       x2="800.87"
       y2="333.16"
       xlink:href="#linear-gradient" />
  </defs>
  <g
     id="zCoqnP"
     transform="translate(-143.6761,-258.23797)">
    <path
       class="cls-1"
       d="m 382.8,376.59 c -5.61,-35.52 -11.22,-71.03 -16.84,-106.57 10,-1.14 10.4,-0.66 11.81,8.44 5.51,35.39 11.15,70.76 17.65,106.1 V 275.11 q 10.3,1.52 10.29,10.67 c 0.01,74.92 0.03,149.84 0.05,224.76 0,1.05 0,2.1 0,3.15 0.4,0.06 0.8,0.11 1.2,0.17 5.61,-35.27 11.22,-70.53 16.83,-105.79 8.65,0.86 9.98,2.44 8.75,10.15 -5.5,34.57 -10.98,69.13 -16.45,103.7 -0.13,0.81 -0.02,1.65 0.73,2.68 11.12,-34.15 22.24,-68.3 33.36,-102.47 9.34,3.84 9.45,4.1 6.5,13.2 -10.97,33.83 -21.93,67.67 -32.08,101.89 16.47,-32.28 32.95,-64.55 49.71,-97.4 2.78,2.61 5.04,4.73 7.8,7.32 -16.76,32.97 -33.5,65.89 -50.23,98.81 0.44,0.27 0.88,0.54 1.31,0.81 20.47,-28.15 40.95,-56.3 61.83,-85.01 2.31,3.04 4.3,5.66 6.52,8.59 -22.01,30.31 -43.87,60.43 -65.73,90.55 0.32,0.28 0.65,0.56 0.97,0.84 24.75,-24.99 49.5,-49.99 74.96,-75.71 2.21,4.05 3.68,6.77 5.41,9.93 -26.34,26.19 -52.72,52.4 -79.09,78.62 0.44,0.51 0.88,1.01 1.32,1.52 28.19,-20.45 56.39,-40.9 84.56,-61.35 5.66,6.95 5.51,8.73 -0.97,13.44 -27.47,19.97 -54.94,39.94 -82.4,59.92 -1,0.72 -1.93,1.54 -2.33,3.33 31.43,-15.98 62.86,-31.97 94.28,-47.95 4.21,8.54 3.88,9.64 -3.94,13.62 -29.5,15.02 -59,30.03 -88.49,45.05 -1.97,1 -3.89,2.1 -5.43,4.11 33.96,-11.02 67.92,-22.04 101.95,-33.08 q 1.93,10.19 -6.9,13.06 c -32.07,10.44 -64.13,20.87 -96.19,31.32 -1.56,0.51 -3.09,1.14 -4.41,2.57 35.42,-5.59 70.84,-11.18 106.27,-16.78 1.14,9.64 0.57,10.39 -7.82,11.7 -33.33,5.21 -66.66,10.43 -99.99,15.67 -2.02,0.32 -4,0.92 -5.89,2.33 h 109.15 c -1.1,3.69 -1.98,6.64 -2.97,9.97 H 411.97 c -0.03,0.35 -0.06,0.7 -0.09,1.05 35.92,5.71 71.83,11.42 107.75,17.13 -1.7,9.45 -2.34,9.96 -10.77,8.63 -34.57,-5.48 -69.13,-10.97 -103.7,-16.44 -0.6,-0.1 -1.23,-0.01 -2.12,0.93 34.05,11.09 68.11,22.17 102.16,33.26 -3.01,8.92 -4.14,9.53 -12.32,6.87 -32.46,-10.54 -64.92,-21.08 -97.38,-31.61 -1.54,-0.5 -3.09,-0.96 -4.96,-0.54 32.18,16.41 64.35,32.82 96.62,49.28 q -6.09,8.57 -14.31,4.35 c -30.59,-15.63 -61.19,-31.24 -91.79,-46.85 -1.02,-0.52 -2.1,-0.91 -3.56,-0.59 29.15,21.19 58.3,42.38 87.45,63.57 -6.25,7.87 -6.66,7.93 -14.41,2.3 -27.31,-19.83 -54.61,-39.67 -81.92,-59.49 -1.18,-0.86 -2.41,-1.65 -5.05,-3.45 26.59,26.41 51.96,51.6 78.21,77.67 -4.5,2.47 -7.33,4.02 -10.94,5.99 -26.3,-26.53 -52.51,-52.98 -78.72,-79.42 -0.4,0.32 -0.79,0.65 -1.19,0.97 20.68,28.51 41.35,57.03 62.07,85.6 q -9.34,4.73 -14.89,-2.87 C 378.9,732.91 359.7,706.45 340.49,680 c -1.21,-1.66 -2.48,-3.28 -4.78,-4.31 16.05,31.58 32.11,63.16 48.18,94.78 q -9.61,3.78 -13.82,-4.48 c -15.22,-29.87 -30.44,-59.74 -45.67,-89.6 -0.82,-1.6 -1.81,-3.11 -3.56,-4.31 11.01,33.98 22.03,67.96 33.06,101.98 -9.67,2.33 -10.1,2.14 -12.76,-6.04 -10.57,-32.46 -21.11,-64.93 -31.68,-97.39 -0.5,-1.55 -1.15,-3.05 -2.56,-4.37 5.61,35.52 11.22,71.03 16.83,106.54 -9.05,1.48 -10.47,0.54 -11.62,-6.86 -5.6,-35.82 -11.23,-71.63 -17.71,-107.42 v 109.23 q -10.36,-1.24 -10.37,-10.46 C 284,683 283.98,608.72 283.95,534.43 c 0,-1.82 0,-3.65 -1.14,-5.58 -5.65,35.45 -11.3,70.9 -16.95,106.38 -9.76,-2.33 -9.93,-2.51 -8.57,-11.01 5.46,-34.35 10.95,-68.7 16.41,-103.05 0.13,-0.81 0.02,-1.66 -0.81,-2.73 -11.1,34.06 -22.19,68.11 -33.29,102.17 -9.11,-3.13 -9.55,-3.99 -6.84,-12.32 10.43,-32.05 20.85,-64.11 31.26,-96.16 0.44,-1.35 0.77,-2.74 0.16,-4.54 -16.1,31.54 -32.19,63.07 -48.29,94.61 -8.46,-4.58 -8.81,-5.48 -4.85,-13.26 14.72,-28.93 29.46,-57.85 44.18,-86.79 0.9,-1.76 1.67,-3.58 1.35,-6.01 -20.43,28.09 -40.86,56.19 -61.3,84.29 -7.78,-6.24 -7.85,-6.8 -2.32,-14.4 19.47,-26.78 38.92,-53.57 58.37,-80.36 0.86,-1.18 1.66,-2.39 2.71,-3.9 -25.04,25.19 -49.78,50.08 -75.55,76 -2.68,-4.9 -4.23,-7.75 -5.98,-10.94 26.47,-26.27 52.79,-52.38 79.11,-78.5 -0.41,-0.5 -0.83,-1 -1.24,-1.49 -28.29,20.53 -56.58,41.06 -85.63,62.14 -1.38,-3.9 -2.46,-6.94 -3.6,-10.14 30.56,-22.21 60.73,-44.14 90.9,-66.08 -0.22,-0.39 -0.43,-0.78 -0.65,-1.17 -31.4,15.97 -62.8,31.94 -94.2,47.9 -4.18,-8.46 -3.89,-9.6 3.85,-13.55 29.48,-15.06 58.98,-30.07 88.47,-45.11 2.03,-1.03 4.02,-2.12 5.65,-4.15 -33.96,11.01 -67.91,22.02 -101.9,33.05 -2.26,-9.75 -2.09,-10.08 6.65,-12.93 32.26,-10.51 64.52,-21.02 96.77,-31.53 1.38,-0.45 2.72,-1 3.89,-2.43 -35.33,5.58 -70.67,11.15 -105.97,16.73 -1.84,-8.77 -0.81,-10.33 7.27,-11.6 33.33,-5.23 66.67,-10.45 100,-15.7 2.04,-0.32 4.05,-0.85 6.02,-2.19 h -109 c 1.09,-3.79 1.95,-6.74 2.91,-10.09 h 115.24 c 0.04,-0.41 0.08,-0.81 0.12,-1.22 -35.7,-5.67 -71.39,-11.35 -107.08,-17.02 1.34,-9.02 2.5,-9.93 10.49,-8.66 34.57,5.49 69.14,10.97 103.72,16.44 0.77,0.12 1.57,0.02 2.55,-0.85 -34.21,-11.14 -68.41,-22.28 -102.65,-33.43 4.18,-9.31 4.43,-9.43 13.5,-6.47 32.45,10.58 64.9,21.17 97.35,31.74 1.26,0.41 2.56,0.71 4.18,0.15 -32.22,-16.43 -64.44,-32.86 -96.73,-49.33 6.06,-8.58 6.04,-8.54 14.69,-4.12 28.91,14.77 57.83,29.51 86.75,44.24 1.58,0.81 3.3,1.36 5.53,1.01 -28.22,-20.52 -56.43,-41.04 -85.49,-62.17 2.99,-2.29 5.55,-4.25 8.54,-6.54 30.86,22.4 61.6,44.71 92.35,67.03 0.33,-0.37 0.66,-0.75 0.98,-1.12 -25.45,-25.29 -50.9,-50.57 -76.4,-75.92 q 8.24,-6.4 14.67,0.05 c 22.82,22.84 45.64,45.67 68.47,68.49 1.27,1.27 2.7,2.37 5.17,2.62 -20.3,-28 -40.61,-56.01 -60.95,-84.06 q 9.1,-5.02 14.74,2.71 c 19.58,26.97 39.14,53.95 58.72,80.91 0.85,1.17 1.84,2.24 3.77,2.82 -16.05,-31.57 -32.1,-63.13 -48.17,-94.72 9.38,-3.96 9.6,-3.9 13.79,4.31 15.03,29.48 30.04,58.97 45.08,88.45 1.04,2.04 2.17,4.04 4.22,5.69 -11.01,-33.93 -22.01,-67.85 -33.01,-101.77 8.45,-2.96 10.16,-2.2 12.59,5.32 10.69,33.08 21.39,66.16 32.1,99.23 0.32,0.98 0.85,1.89 1.29,2.83 0.3,-0.01 0.61,-0.03 0.91,-0.04 z m -88.7,144.42 c 0,20.03 -0.1,40.06 0.02,60.09 0.18,29.59 22.03,52 50.56,52.02 28.92,0.02 50.81,-22.41 50.86,-52.32 0.07,-39.43 0.06,-78.85 0,-118.28 -0.05,-29.72 -21.76,-52.54 -49.92,-52.66 -29.42,-0.13 -51.36,22.11 -51.5,52.33 -0.09,19.61 -0.02,39.21 -0.02,58.82 z"
       id="path6"
       style="fill:#042523" />
  </g>
  <path
     class="cls-1"
     d="m 2212.4039,303.49203 c 3.81,98.22 115.7,125.29 196.87,100.49 51.15,-14.75 80.65,-53.76 80.93,-107.03 0.41,-78.78 0.14,-156.53 0.13,-234.619999 h -40.76 c -0.63,80.149999 1.25,160.759999 -0.76,240.849999 -5.73,68.71 -85.58,89.59 -142.66,67.73 -34.91,-12.51 -53.82,-43.22 -53.2,-80.73 0.04,-56.28 0.02,-227.749999 0.02,-227.749999 h -40.97 c 0.32,80.079999 -0.65,161.089999 0.39,241.069999 z"
     id="path9"
     style="fill:#042523" />
  <path
     class="cls-1"
     d="m 847.8439,316.81203 c 0.51,-1.79 0.93,-3.64 1.35,-5.57 l -31.34,-9.5 c -15.58,56.69 -67.52,82.96 -123.64,76.4 -64.84,-5 -106.37,-59.62 -109.95,-122.75 -5.63,-67.68 17.7,-139.8 83.17,-160.349999 66.83,-19.85 141.42,11.079999 149.65,86.239999 l 32.44,-4.56 c -5.23,-93.879999 -92.57,-132.419999 -176.43,-117.799999 -118.68,14.88 -156.23,160.649999 -119.5,258.229999 40.75,124.6 259.47,131.41 294.26,-0.34 z"
     id="path11"
     style="fill:#042523" />
  <polygon
     class="cls-1"
     points="1588.79,630.37 1406.44,630.37 1406.44,320.7 1366.09,320.7 1366.09,664.29 1588.79,664.29 "
     id="polygon13"
     style="fill:#042523"
     transform="translate(-143.6761,-258.23797)" />
  <rect
     class="cls-1"
     x="1970.9637"
     y="439.13202"
     width="158.52"
     height="32.639999"
     id="rect15"
     style="fill:#042523" />
  <path
     class="cls-1"
     d="m 2144.4239,245.78203 c 11.79,-160.009999 -150.33,-240.2999995 -278.57,-158.739999 -69.65,48.139999 -82.56,155.249999 -52.8,230.509999 l -0.03,-0.03 c 41.81,125.4 275.15,125.29 316.88,0 l -0.03,0.03 c 8.61,-20.34 13.58,-47.19 14.56,-71.77 z m -173.92,131.1 c -113.53,4.75 -153.88,-123.25 -115.36,-212.12 36.29,-97.269999 196.35,-97.269999 232.64,0 38.91,89.75 -2.74,218.26 -117.28,212.12 z"
     id="path17"
     style="fill:#042523" />
  <path
     class="cls-1"
     d="m 1656.4239,62.082031 c -23.94,0.12 -49.07,0.12 -74.71,0 -30.69,90.759999 -116.46,344.019999 -116.46,344.019999 h 42.7 c 0,0 21.22,-64.96 28.62,-88.05 1.83,-5.72 5.5,-8.39 11.54,-8.39 h 0.06 c 51.07,0.12 96.75,0.12 139.66,-0.02 h 0.07 c 8,0 10.53,5 11.74,8.77 4.79,14.95 23.81,73.55 28.42,87.93 11.65,-0.11 41.88,-0.08 45.36,-0.08 0,0 -87.44,-257.06 -117,-344.179999 z m -106.66,216.349999 47.85,-183.009999 h 41.39 l 47.4,183.009999 z"
     id="path19"
     style="fill:#042523" />
  <polygon
     class="cls-1"
     points="2961.67,629.88 2771.87,629.88 2771.87,505.15 2932.74,505.15 2932.74,472.01 2771.82,472.01 2771.82,353.65 2962,353.65 2962,320.7 2731.21,320.7 2731.21,663.84 2961.67,663.84 "
     id="polygon21"
     style="fill:#042523"
     transform="translate(-143.6761,-258.23797)" />
  <polygon
     class="cls-1"
     points="1293.13,629.98 1103.33,629.98 1103.33,505.24 1264.2,505.24 1264.2,472.11 1103.28,472.11 1103.28,353.75 1293.46,353.75 1293.46,320.8 1062.67,320.8 1062.67,663.93 1293.13,663.93 "
     id="polygon23"
     style="fill:#042523"
     transform="translate(-143.6761,-258.23797)" />
</svg>
